<?xml version="1.0" standalone="no"?>
<!DOCTYPE svg PUBLIC "-//W3C//DTD SVG 20010904//EN"
 "http://www.w3.org/TR/2001/REC-SVG-20010904/DTD/svg10.dtd">
<svg version="1.0" xmlns="http://www.w3.org/2000/svg"
 width="4301.000000pt" height="4960.000000pt" viewBox="0 0 4301.000000 4960.000000"
 preserveAspectRatio="xMidYMid meet">

<g transform="translate(0.000000,4960.000000) scale(0.100000,-0.100000)"
fill="#000000" stroke="none">
<path d="M10910 49245 c-315 -52 -627 -224 -900 -495 -162 -161 -253 -296
-400 -595 -172 -349 -288 -684 -341 -980 -30 -170 -38 -563 -15 -720 52 -351
151 -553 354 -716 266 -215 431 -259 972 -259 591 0 1032 -66 1483 -220 362
-123 495 -203 962 -580 402 -325 501 -435 778 -872 258 -406 331 -547 540
-1038 172 -406 194 -459 238 -583 l39 -108 -53 6 c-72 9 -313 -12 -406 -36
-152 -39 -317 -136 -392 -232 -95 -119 -139 -256 -139 -429 0 -59 -2 -108 -5
-108 -3 0 -41 20 -83 45 -149 85 -453 207 -647 259 -335 89 -764 185 -975 218
-277 43 -851 28 -1400 -38 -541 -64 -912 -137 -1506 -294 -988 -262 -1774
-568 -2431 -946 -92 -54 -265 -153 -383 -222 -593 -342 -980 -485 -1380 -511
-143 -10 -171 -18 -222 -68 -52 -51 -72 -114 -66 -214 9 -147 99 -281 286
-422 256 -193 605 -304 1052 -336 535 -39 774 -21 1415 105 358 71 867 156
1059 179 205 23 514 38 671 32 139 -6 603 -64 815 -103 138 -25 506 -119 523
-134 4 -4 -38 -12 -95 -19 -299 -35 -680 -104 -950 -172 -456 -114 -800 -241
-1365 -504 -580 -270 -880 -458 -1430 -895 -453 -359 -548 -450 -972 -915
-387 -426 -537 -608 -788 -961 -55 -78 -173 -231 -261 -340 -126 -156 -197
-233 -331 -357 -194 -182 -216 -213 -209 -308 7 -100 69 -164 188 -196 51 -13
105 -17 250 -17 360 1 720 69 1003 190 45 20 89 38 97 41 8 4 -57 -68 -146
-159 -262 -269 -369 -398 -874 -1053 -556 -720 -719 -943 -945 -1290 -571
-875 -1132 -2032 -1555 -3205 -108 -298 -279 -761 -413 -1115 -313 -829 -554
-1681 -741 -2617 -166 -831 -281 -1555 -340 -2133 -76 -744 -87 -969 -93
-1829 -11 -1599 52 -2494 263 -3761 139 -838 399 -1913 744 -3085 294 -998
433 -1432 618 -1930 254 -683 375 -956 992 -2235 698 -1447 866 -1755 1338
-2442 772 -1124 1002 -1415 1671 -2117 367 -385 717 -713 1216 -1142 410 -352
610 -491 1405 -974 157 -95 386 -239 510 -318 543 -350 667 -423 1100 -647
259 -134 432 -229 845 -461 156 -87 342 -170 455 -204 42 -12 186 -79 325
-150 665 -341 919 -435 1510 -554 862 -174 1437 -250 2210 -291 289 -15 582
-37 1000 -75 328 -29 459 -38 915 -60 556 -27 706 -37 1030 -65 514 -46 645
-55 980 -65 519 -16 811 -29 975 -45 430 -42 523 -48 765 -48 175 0 335 7 510
21 331 28 553 40 1000 52 410 11 580 22 820 50 91 11 280 31 420 45 1433 143
1541 162 2655 473 237 66 558 155 715 197 793 212 1653 488 2440 782 813 303
1207 482 2100 953 732 386 913 496 1692 1026 983 669 1142 793 2053 1609 875
783 1123 1023 2062 1997 768 796 1140 1261 1757 2196 958 1450 1547 2612 2052
4044 586 1664 1054 3961 1168 5733 39 600 46 1558 16 2200 -93 2023 -314 3320
-941 5523 -486 1707 -762 2463 -1366 3742 -794 1679 -1029 2097 -1777 3163
-827 1180 -965 1343 -2322 2762 -578 604 -1042 981 -1864 1515 -265 172 -493
311 -895 545 -187 109 -468 274 -625 368 -645 383 -940 536 -1577 813 -147 64
-461 202 -698 307 -631 279 -746 322 -1580 598 -418 138 -935 313 -1150 389
-570 202 -718 246 -1250 370 -143 33 -496 119 -785 190 -658 162 -860 200
-1082 200 -32 0 -58 2 -58 5 0 3 39 67 86 142 386 610 701 1347 822 1923 105
496 138 893 129 1523 -6 384 -10 438 -52 693 -52 309 -183 745 -259 858 -57
85 -116 120 -211 124 -94 5 -158 -21 -220 -90 -51 -57 -77 -109 -170 -343
-143 -357 -252 -575 -493 -975 -379 -632 -582 -891 -1088 -1390 -442 -436
-684 -619 -1219 -922 -394 -224 -568 -296 -1015 -417 -211 -58 -317 -91 -585
-186 -120 -42 -295 -92 -475 -136 -454 -111 -769 -205 -1180 -351 -328 -117
-497 -186 -755 -312 -239 -117 -357 -185 -485 -280 -41 -31 -77 -52 -81 -48
-3 4 -11 34 -18 67 -35 181 -66 354 -96 550 -44 273 -144 817 -191 1030 -75
336 -300 1043 -418 1310 -90 205 -369 702 -568 1015 -326 511 -946 1219 -1503
1715 -664 591 -1650 1154 -2416 1379 -538 158 -1099 236 -1369 191z m487 -500
c59 -8 142 -20 183 -26 204 -29 596 -133 826 -219 625 -235 1399 -696 1903
-1133 381 -332 759 -730 1127 -1187 242 -301 360 -479 639 -965 215 -374 275
-507 398 -881 199 -601 224 -708 417 -1749 102 -548 197 -951 350 -1485 45
-157 99 -359 122 -450 63 -257 99 -340 192 -439 142 -149 293 -212 518 -212
88 0 119 -5 156 -21 202 -88 304 -90 364 -6 70 99 -24 306 -201 443 -51 39
-59 49 -64 87 -3 24 -23 86 -43 138 -34 85 -37 104 -37 185 0 133 29 223 144
453 121 243 176 327 276 423 230 220 607 430 1058 589 136 48 190 81 228 139
19 29 37 43 64 50 21 5 113 28 204 50 91 23 298 86 459 141 160 55 392 127
514 161 280 77 405 117 555 179 388 160 1020 536 1366 813 398 319 889 825
1205 1242 241 317 659 1008 820 1355 30 63 57 119 61 124 11 13 25 -51 48
-209 35 -248 44 -428 39 -817 l-5 -366 -30 -39 c-59 -76 -93 -152 -228 -506
-99 -262 -304 -585 -706 -1117 -380 -503 -559 -679 -1196 -1173 -381 -296
-473 -356 -850 -559 -114 -61 -298 -161 -408 -220 -187 -102 -447 -233 -1015
-511 -404 -198 -694 -397 -971 -668 -142 -139 -179 -202 -179 -304 0 -107 77
-202 186 -226 67 -15 118 -3 233 56 69 36 126 55 291 94 265 64 382 88 505
101 55 6 183 24 285 40 318 50 679 99 820 111 179 16 728 16 905 0 192 -17
368 -42 790 -111 594 -98 656 -113 1135 -286 190 -69 414 -150 499 -180 85
-31 209 -79 275 -107 148 -62 759 -370 1066 -536 399 -216 598 -303 1005 -440
314 -105 528 -151 890 -193 149 -17 516 -17 628 1 48 7 90 11 93 8 7 -7 -30
-65 -144 -226 -128 -180 -268 -354 -388 -479 -90 -94 -105 -105 -168 -127 -38
-14 -103 -45 -145 -69 -195 -112 -460 -228 -750 -327 -311 -106 -523 -154
-906 -203 -717 -92 -955 -88 -1627 29 -474 83 -603 111 -1108 245 -184 49
-429 112 -545 140 -251 61 -416 108 -704 201 -564 183 -790 231 -1332 284
-599 58 -863 56 -1311 -9 -567 -83 -788 -154 -1018 -327 -118 -89 -160 -158
-160 -264 0 -44 -4 -65 -12 -65 -6 0 -30 -9 -53 -20 -73 -35 -97 -115 -52
-181 12 -18 150 -131 307 -251 407 -310 427 -325 545 -406 300 -207 623 -510
810 -762 123 -166 290 -416 361 -540 58 -103 265 -517 364 -730 105 -225 151
-349 250 -680 154 -514 177 -616 264 -1172 73 -464 92 -631 111 -943 8 -143
17 -291 20 -330 21 -271 48 -581 60 -695 19 -164 89 -630 110 -735 23 -110 83
-276 192 -533 167 -391 268 -574 452 -815 95 -125 100 -123 -94 -35 -551 253
-906 500 -1346 938 -285 284 -529 583 -549 675 -6 28 -51 136 -100 240 -151
327 -234 513 -314 710 -43 105 -119 287 -169 405 -168 398 -206 498 -311 807
-118 348 -113 334 -306 768 -271 607 -380 797 -665 1150 -215 267 -415 473
-695 714 -157 136 -263 216 -685 522 -545 394 -747 522 -1105 698 -227 112
-377 173 -510 208 -85 22 -109 24 -235 20 -122 -4 -156 -9 -265 -40 -282 -80
-665 -224 -793 -299 -200 -116 -509 -384 -672 -583 -309 -378 -558 -812 -731
-1279 -131 -349 -223 -701 -349 -1331 -141 -709 -190 -877 -391 -1360 -137
-330 -528 -1011 -789 -1379 -178 -250 -273 -365 -410 -501 -137 -135 -196
-205 -270 -320 -64 -99 -156 -186 -415 -395 -110 -88 -210 -175 -225 -193 -40
-54 -536 -301 -880 -439 -218 -88 -313 -118 -675 -218 -381 -105 -490 -129
-780 -175 -118 -19 -280 -48 -360 -64 -80 -16 -167 -33 -194 -37 l-48 -7 75
88 c89 104 407 535 535 726 196 293 412 660 482 819 117 265 350 1085 440
1545 102 523 126 627 255 1120 37 138 111 423 165 635 254 992 535 1718 951
2451 209 369 465 700 698 903 142 124 376 297 543 401 193 120 520 286 758
383 107 44 261 110 343 146 81 36 204 89 273 116 125 50 126 50 186 40 95 -18
184 7 240 67 79 83 77 216 -5 301 -47 50 -107 76 -273 121 -177 48 -331 76
-509 90 -71 6 -164 16 -205 22 -108 15 -652 -16 -1135 -66 -132 -14 -359 -36
-505 -50 -345 -33 -532 -62 -885 -140 -159 -35 -362 -78 -450 -95 -386 -76
-587 -142 -1055 -348 -649 -285 -900 -434 -2078 -1230 -462 -313 -620 -428
-777 -567 -44 -39 -105 -89 -136 -112 -62 -46 -95 -91 -114 -156 -12 -41 -13
-43 -117 -85 -88 -35 -231 -77 -360 -106 -21 -5 -2 19 89 112 153 156 293 319
459 537 149 195 274 347 412 501 48 54 115 130 149 169 146 171 416 456 527
558 151 137 627 519 824 660 355 255 801 492 1381 733 744 311 1470 454 2631
520 333 19 678 15 1081 -12 301 -20 339 -16 385 39 20 24 25 40 24 81 -1 28 6
76 14 106 47 163 -63 290 -499 575 -463 303 -608 375 -1155 573 -433 156 -614
197 -985 222 -275 18 -737 24 -875 11 -156 -15 -426 -61 -632 -107 -157 -35
-850 -226 -1198 -331 -372 -112 -419 -125 -635 -169 -243 -49 -324 -79 -368
-138 l-26 -34 -163 -7 c-197 -8 -502 8 -636 34 -126 25 -237 62 -337 114 l-80
42 55 8 c203 29 430 90 670 179 235 87 378 161 850 437 772 453 1533 746 2690
1036 457 115 926 195 1405 240 241 23 631 38 805 32 232 -9 353 -31 880 -157
511 -123 687 -192 1075 -424 215 -129 259 -148 357 -154 l78 -5 133 -137 c179
-184 287 -344 367 -544 42 -107 139 -473 150 -566 14 -121 51 -179 140 -219
49 -22 104 -27 145 -11 19 7 32 6 48 -4 95 -60 211 -5 303 144 33 53 39 58 88
69 58 13 121 59 154 114 39 63 64 206 96 547 56 594 41 943 -69 1586 -50 289
-218 1157 -265 1365 -118 519 -276 946 -504 1354 -96 172 -332 529 -458 690
-296 380 -764 764 -1203 987 -311 158 -618 284 -815 334 -248 64 -413 57 -686
-30 -76 -24 -149 -46 -161 -49 -29 -6 -659 65 -669 76 -1 1 16 31 38 67 53 86
309 607 363 740 53 130 77 216 109 392 114 617 98 934 -62 1251 -6 11 46 9
165 -8z m-468 -61 c22 -26 44 -62 48 -83 16 -72 8 -380 -11 -471 -32 -154
-157 -630 -188 -718 -26 -74 -169 -371 -153 -318 17 57 66 265 84 356 32 163
41 251 41 385 0 164 -21 237 -89 305 -89 89 -201 102 -330 39 -65 -32 -189
-144 -270 -244 -27 -34 -22 -20 29 82 82 164 144 256 237 354 138 144 299 261
457 331 85 37 98 36 145 -18z m6949 -7400 c-34 -86 -54 -118 -43 -69 8 34 66
157 71 152 2 -2 -10 -39 -28 -83z m4862 -339 c0 -3 -68 -51 -152 -105 -146
-96 -154 -100 -206 -100 l-55 0 204 104 c112 57 205 104 207 105 1 0 2 -1 2
-4z m-2134 -3812 c42 -6 45 -8 24 -14 -34 -10 -302 -11 -381 -2 l-64 8 45 6
c65 9 319 10 376 2z m13264 -1054 c293 -29 506 -80 965 -233 549 -184 787
-286 1082 -465 461 -281 1092 -819 1484 -1266 476 -543 922 -1190 1308 -1898
356 -652 575 -1213 766 -1963 139 -548 250 -1275 270 -1784 14 -324 -37 -782
-125 -1130 -146 -578 -474 -1131 -842 -1422 -347 -275 -940 -513 -1463 -588
-519 -73 -1167 -33 -1652 104 -226 64 -689 238 -933 352 -749 347 -1398 900
-1996 1700 -218 292 -497 720 -666 1024 -303 544 -737 1556 -961 2245 -125
384 -189 679 -283 1306 -45 298 -47 324 -47 519 1 113 0 293 0 400 -6 725 0
805 70 1083 107 429 280 751 582 1086 192 212 617 543 858 669 428 222 1003
317 1583 261z m-6376 -4624 c204 -36 467 -149 668 -287 309 -212 765 -652
1092 -1052 424 -518 786 -1157 1056 -1861 211 -551 303 -1012 261 -1306 -26
-178 -151 -502 -253 -652 -140 -207 -331 -315 -685 -388 -126 -26 -489 -37
-644 -20 -332 38 -565 114 -1074 351 -268 124 -294 134 -380 134 -66 0 -80 -4
-250 -81 -338 -152 -502 -196 -725 -196 -198 1 -340 44 -487 149 -246 176
-470 551 -648 1089 -141 424 -220 844 -232 1230 -13 451 64 715 271 934 152
159 303 221 667 275 209 31 314 56 389 94 109 54 128 121 141 507 5 149 14
315 20 369 30 277 123 471 282 592 153 116 326 155 531 119z m-13647 -8506
c194 -26 325 -91 449 -220 105 -111 165 -236 184 -387 12 -94 6 -153 -27 -257
-60 -192 -134 -307 -275 -431 -101 -88 -157 -109 -358 -138 -94 -14 -127 -10
-251 30 -341 108 -531 353 -533 684 -1 83 4 120 22 180 50 158 134 288 249
381 137 112 216 142 450 168 6 0 47 -4 90 -10z m19973 -15 c43 -9 115 -35 169
-61 159 -78 292 -230 352 -403 19 -54 23 -84 21 -180 -1 -99 -5 -128 -32 -210
-70 -215 -156 -345 -300 -454 -84 -65 -137 -83 -317 -110 -105 -16 -137 -12
-273 35 -220 75 -359 188 -445 364 -174 354 -28 792 320 961 167 81 310 97
505 58z m-25130 -5920 c445 -46 888 -162 1147 -300 282 -151 431 -286 498
-454 26 -65 24 -188 -4 -262 -26 -68 -94 -163 -167 -234 -195 -191 -625 -390
-1089 -504 -1228 -302 -2777 -94 -3318 445 -214 213 -206 424 28 661 352 357
1168 622 2050 665 226 11 672 2 855 -17z m27790 -55 c232 -20 297 -28 415 -48
131 -23 219 -43 335 -73 41 -11 84 -23 95 -25 76 -20 298 -105 390 -150 297
-148 488 -327 535 -506 65 -243 -159 -515 -595 -723 -518 -247 -1154 -373
-1888 -374 -434 0 -778 38 -1143 126 -582 140 -980 372 -1094 639 -15 34 -20
69 -20 130 0 77 3 88 42 166 54 109 188 246 334 342 301 199 789 368 1274 442
58 8 130 20 160 25 234 41 848 57 1160 29z"/>
<path d="M18822 39419 c-54 -27 -96 -78 -112 -136 l-13 -44 -51 6 c-40 5 -57
2 -82 -14 -41 -25 -48 -66 -30 -162 28 -147 -26 -282 -216 -544 -125 -173
-254 -302 -418 -419 -376 -266 -735 -420 -1240 -528 -145 -31 -146 -31 -520
-35 -395 -5 -496 1 -635 38 -179 47 -386 153 -451 233 -43 51 -94 147 -153
283 -70 164 -82 215 -91 395 -7 136 -11 162 -30 192 -21 35 -40 45 -87 49 -20
1 -21 5 -16 47 16 137 -93 251 -229 238 -33 -4 -64 0 -86 9 -51 21 -135 18
-186 -7 -165 -79 -296 -394 -296 -709 0 -204 79 -453 206 -648 58 -90 263
-287 421 -405 213 -160 385 -256 584 -326 321 -113 1023 -196 1384 -163 301
28 596 83 885 166 573 164 903 349 1261 705 295 293 448 547 534 885 61 240
67 404 24 620 -32 159 -74 231 -161 276 -51 26 -140 25 -196 -2z"/>
<path d="M17760 39400 c-19 -10 -83 -66 -142 -123 -305 -300 -596 -451 -1118
-582 -202 -50 -292 -66 -425 -72 -107 -5 -312 9 -350 23 -8 3 -19 30 -25 59
-27 131 -144 205 -272 175 -70 -17 -147 -92 -173 -169 -55 -166 39 -382 201
-464 115 -58 309 -89 564 -90 195 0 322 19 595 87 581 146 914 317 1256 644
99 94 161 208 167 307 5 72 8 68 -119 171 -74 60 -101 66 -159 34z"/>
</g>
</svg>
